# File units = meters
mtllib Limbo_stick_brown.mtl
g Limbo Stick v1
v 0.0157819 0 0.00171639 
v 0.0155039 0 0.00341266 
v 0.015044 0 0.00506891 
v 0.0144078 0 0.00666574 
v 0.0136026 0 0.00818442 
v 0.012638 0 0.00960714 
v 0.0115252 0 0.0109172 
v 0.0102773 0 0.0120993 
v 0.00890884 0 0.0131396 
v 0.00743598 0 0.0140258 
v 0.00587594 0 0.0147475 
v 0.00424701 0 0.0152964 
v 0.00256829 0 0.0156659 
v 0.000859455 0 0.0158517 
v -0.000859455 0 0.0158517 
v -0.00256829 0 0.0156659 
v -0.00424701 0 0.0152964 
v -0.00587594 0 0.0147475 
v -0.00743598 0 0.0140258 
v -0.00890884 0 0.0131396 
v -0.0102773 0 0.0120993 
v -0.0115252 0 0.0109172 
v -0.012638 0 0.00960714 
v -0.0136026 0 0.00818442 
v -0.0144078 0 0.00666574 
v -0.015044 0 0.00506891 
v -0.0155039 0 0.00341266 
v -0.0157819 0 0.00171639 
v -0.015875 0 -1.94413e-18 
v -0.0157819 0 -0.00171639 
v -0.0155039 0 -0.00341266 
v -0.015044 0 -0.00506891 
v -0.0144078 0 -0.00666574 
v -0.0136026 0 -0.00818442 
v -0.012638 0 -0.00960714 
v -0.0115252 0 -0.0109172 
v -0.0102773 0 -0.0120993 
v -0.00890884 0 -0.0131396 
v -0.00743598 0 -0.0140258 
v -0.00587594 0 -0.0147475 
v -0.00424701 0 -0.0152964 
v -0.00256829 0 -0.0156659 
v -0.000859455 0 -0.0158517 
v 0.000859455 0 -0.0158517 
v 0.00256829 0 -0.0156659 
v 0.00424701 0 -0.0152964 
v 0.00587594 0 -0.0147475 
v 0.00743598 0 -0.0140258 
v 0.00890884 0 -0.0131396 
v 0.0102773 0 -0.0120993 
v 0.0115252 0 -0.0109172 
v 0.012638 0 -0.00960714 
v 0.0136026 0 -0.00818442 
v 0.0144078 0 -0.00666574 
v 0.015044 0 -0.00506891 
v 0.0155039 0 -0.00341266 
v 0.0157819 0 -0.00171639 
v 0.015875 0 3.88825e-18 
v 0 0 0 
v 0.015875 0.55 0 
v 0.0157819 0.55 -0.00171639 
v 0.0155039 0.55 -0.00341266 
v 0.015044 0.55 -0.00506891 
v 0.0144078 0.55 -0.00666574 
v 0.0136026 0.55 -0.00818442 
v 0.012638 0.55 -0.00960714 
v 0.0115252 0.55 -0.0109172 
v 0.0102773 0.55 -0.0120993 
v 0.00890884 0.55 -0.0131396 
v 0.00743598 0.55 -0.0140258 
v 0.00587594 0.55 -0.0147475 
v 0.00424701 0.55 -0.0152964 
v 0.00256829 0.55 -0.0156659 
v 0.000859455 0.55 -0.0158517 
v -0.000859455 0.55 -0.0158517 
v -0.00256829 0.55 -0.0156659 
v -0.00424701 0.55 -0.0152964 
v -0.00587594 0.55 -0.0147475 
v -0.00743598 0.55 -0.0140258 
v -0.00890884 0.55 -0.0131396 
v -0.0102773 0.55 -0.0120993 
v -0.0115252 0.55 -0.0109172 
v -0.012638 0.55 -0.00960714 
v -0.0136026 0.55 -0.00818442 
v -0.0144078 0.55 -0.00666574 
v -0.015044 0.55 -0.00506891 
v -0.0155039 0.55 -0.00341266 
v -0.0157819 0.55 -0.00171639 
v -0.015875 0.55 -1.94413e-18 
v -0.0157819 0.55 0.00171639 
v -0.0155039 0.55 0.00341266 
v -0.015044 0.55 0.00506891 
v -0.0144078 0.55 0.00666574 
v -0.0136026 0.55 0.00818442 
v -0.012638 0.55 0.00960714 
v -0.0115252 0.55 0.0109172 
v -0.0102773 0.55 0.0120993 
v -0.00890884 0.55 0.0131396 
v -0.00743598 0.55 0.0140258 
v -0.00587594 0.55 0.0147475 
v -0.00424701 0.55 0.0152964 
v -0.00256829 0.55 0.0156659 
v -0.000859455 0.55 0.0158517 
v 0.000859455 0.55 0.0158517 
v 0.00256829 0.55 0.0156659 
v 0.00424701 0.55 0.0152964 
v 0.00587594 0.55 0.0147475 
v 0.00743598 0.55 0.0140258 
v 0.00890884 0.55 0.0131396 
v 0.0102773 0.55 0.0120993 
v 0.0115252 0.55 0.0109172 
v 0.012638 0.55 0.00960714 
v 0.0136026 0.55 0.00818442 
v 0.0144078 0.55 0.00666574 
v 0.015044 0.55 0.00506891 
v 0.0155039 0.55 0.00341266 
v 0.0157819 0.55 0.00171639 
v 0 0.55 0 
vn 0 -1 0 
vn 1 0 0 
vn 0.994138 0 -0.108119 
vn 0.976621 0 -0.21497 
vn 0.947653 0 -0.319302 
vn 0.907575 0 -0.419889 
vn 0.856857 0 -0.515554 
vn 0.796093 0 -0.605174 
vn 0.725995 0 -0.687699 
vn 0.647386 0 -0.762162 
vn 0.561187 0 -0.827689 
vn 0.468408 0 -0.883512 
vn 0.370138 0 -0.928977 
vn 0.267528 0 -0.96355 
vn 0.161782 0 -0.986827 
vn 0.0541389 0 -0.998533 
vn -0.0541389 0 -0.998533 
vn -0.161782 0 -0.986827 
vn -0.267528 0 -0.96355 
vn -0.370138 0 -0.928977 
vn -0.468408 0 -0.883512 
vn -0.561187 0 -0.827689 
vn -0.647386 0 -0.762162 
vn -0.725995 0 -0.687699 
vn -0.796093 0 -0.605174 
vn -0.856857 0 -0.515554 
vn -0.907575 0 -0.419889 
vn -0.947653 0 -0.319302 
vn -0.976621 0 -0.21497 
vn -0.994138 0 -0.108119 
vn -1 0 -1.22465e-16 
vn -0.994138 0 0.108119 
vn -0.976621 0 0.21497 
vn -0.947653 0 0.319302 
vn -0.907575 0 0.419889 
vn -0.856857 0 0.515554 
vn -0.796093 0 0.605174 
vn -0.725995 0 0.687699 
vn -0.647386 0 0.762162 
vn -0.561187 0 0.827689 
vn -0.468408 0 0.883512 
vn -0.370138 0 0.928977 
vn -0.267528 0 0.96355 
vn -0.161782 0 0.986827 
vn -0.0541389 0 0.998533 
vn 0.0541389 0 0.998533 
vn 0.161782 0 0.986827 
vn 0.267528 0 0.96355 
vn 0.370138 0 0.928977 
vn 0.468408 0 0.883512 
vn 0.561187 0 0.827689 
vn 0.647386 0 0.762162 
vn 0.725995 0 0.687699 
vn 0.796093 0 0.605174 
vn 0.856857 0 0.515554 
vn 0.907575 0 0.419889 
vn 0.947653 0 0.319302 
vn 0.976621 0 0.21497 
vn 0.994138 0 0.108119 
vn 0 1 0 
usemtl 0.756863_0.462745_0.109804_0.000000_0.000000
o mesh0
f 59//1 1//1 2//1 
f 2//1 3//1 59//1 
f 3//1 4//1 59//1 
f 4//1 5//1 59//1 
f 5//1 6//1 59//1 
f 6//1 7//1 59//1 
f 7//1 8//1 59//1 
f 8//1 9//1 59//1 
f 9//1 10//1 59//1 
f 10//1 11//1 59//1 
f 11//1 12//1 59//1 
f 12//1 13//1 59//1 
f 13//1 14//1 59//1 
f 14//1 15//1 59//1 
f 15//1 16//1 59//1 
f 16//1 17//1 59//1 
f 17//1 18//1 59//1 
f 18//1 19//1 59//1 
f 19//1 20//1 59//1 
f 20//1 21//1 59//1 
f 21//1 22//1 59//1 
f 22//1 23//1 59//1 
f 23//1 24//1 59//1 
f 24//1 25//1 59//1 
f 25//1 26//1 59//1 
f 26//1 27//1 59//1 
f 27//1 28//1 59//1 
f 28//1 29//1 59//1 
f 29//1 30//1 59//1 
f 30//1 31//1 59//1 
f 31//1 32//1 59//1 
f 32//1 33//1 59//1 
f 33//1 34//1 59//1 
f 34//1 35//1 59//1 
f 35//1 36//1 59//1 
f 36//1 37//1 59//1 
f 37//1 38//1 59//1 
f 38//1 39//1 59//1 
f 39//1 40//1 59//1 
f 40//1 41//1 59//1 
f 41//1 42//1 59//1 
f 42//1 43//1 59//1 
f 43//1 44//1 59//1 
f 44//1 45//1 59//1 
f 45//1 46//1 59//1 
f 46//1 47//1 59//1 
f 47//1 48//1 59//1 
f 48//1 49//1 59//1 
f 49//1 50//1 59//1 
f 50//1 51//1 59//1 
f 51//1 52//1 59//1 
f 52//1 53//1 59//1 
f 53//1 54//1 59//1 
f 54//1 55//1 59//1 
f 55//1 56//1 59//1 
f 56//1 57//1 59//1 
f 57//1 58//1 59//1 
f 58//1 1//1 59//1 
o mesh1
f 60//2 58//2 57//3 
f 61//3 57//3 56//4 
f 62//4 56//4 55//5 
f 63//5 55//5 54//6 
f 64//6 54//6 53//7 
f 65//7 53//7 52//8 
f 66//8 52//8 51//9 
f 67//9 51//9 50//10 
f 68//10 50//10 49//11 
f 69//11 49//11 48//12 
f 70//12 48//12 47//13 
f 71//13 47//13 46//14 
f 72//14 46//14 45//15 
f 73//15 45//15 44//16 
f 74//16 44//16 43//17 
f 75//17 43//17 42//18 
f 76//18 42//18 41//19 
f 77//19 41//19 40//20 
f 78//20 40//20 39//21 
f 79//21 39//21 38//22 
f 80//22 38//22 37//23 
f 81//23 37//23 36//24 
f 82//24 36//24 35//25 
f 83//25 35//25 34//26 
f 84//26 34//26 33//27 
f 85//27 33//27 32//28 
f 86//28 32//28 31//29 
f 87//29 31//29 30//30 
f 88//30 30//30 29//31 
f 89//31 29//31 28//32 
f 90//32 28//32 27//33 
f 91//33 27//33 26//34 
f 92//34 26//34 25//35 
f 93//35 25//35 24//36 
f 94//36 24//36 23//37 
f 95//37 23//37 22//38 
f 96//38 22//38 21//39 
f 97//39 21//39 20//40 
f 98//40 20//40 19//41 
f 99//41 19//41 18//42 
f 100//42 18//42 17//43 
f 101//43 17//43 16//44 
f 102//44 16//44 15//45 
f 103//45 15//45 14//46 
f 104//46 14//46 13//47 
f 105//47 13//47 12//48 
f 106//48 12//48 11//49 
f 107//49 11//49 10//50 
f 108//50 10//50 9//51 
f 109//51 9//51 8//52 
f 110//52 8//52 7//53 
f 111//53 7//53 6//54 
f 112//54 6//54 5//55 
f 113//55 5//55 4//56 
f 114//56 4//56 3//57 
f 115//57 3//57 2//58 
f 116//58 2//58 1//59 
f 117//59 1//59 58//2 
f 58//2 60//2 117//59 
f 1//59 117//59 116//58 
f 2//58 116//58 115//57 
f 3//57 115//57 114//56 
f 4//56 114//56 113//55 
f 5//55 113//55 112//54 
f 6//54 112//54 111//53 
f 7//53 111//53 110//52 
f 8//52 110//52 109//51 
f 9//51 109//51 108//50 
f 10//50 108//50 107//49 
f 11//49 107//49 106//48 
f 12//48 106//48 105//47 
f 13//47 105//47 104//46 
f 14//46 104//46 103//45 
f 15//45 103//45 102//44 
f 16//44 102//44 101//43 
f 17//43 101//43 100//42 
f 18//42 100//42 99//41 
f 19//41 99//41 98//40 
f 20//40 98//40 97//39 
f 21//39 97//39 96//38 
f 22//38 96//38 95//37 
f 23//37 95//37 94//36 
f 24//36 94//36 93//35 
f 25//35 93//35 92//34 
f 26//34 92//34 91//33 
f 27//33 91//33 90//32 
f 28//32 90//32 89//31 
f 29//31 89//31 88//30 
f 30//30 88//30 87//29 
f 31//29 87//29 86//28 
f 32//28 86//28 85//27 
f 33//27 85//27 84//26 
f 34//26 84//26 83//25 
f 35//25 83//25 82//24 
f 36//24 82//24 81//23 
f 37//23 81//23 80//22 
f 38//22 80//22 79//21 
f 39//21 79//21 78//20 
f 40//20 78//20 77//19 
f 41//19 77//19 76//18 
f 42//18 76//18 75//17 
f 43//17 75//17 74//16 
f 44//16 74//16 73//15 
f 45//15 73//15 72//14 
f 46//14 72//14 71//13 
f 47//13 71//13 70//12 
f 48//12 70//12 69//11 
f 49//11 69//11 68//10 
f 50//10 68//10 67//9 
f 51//9 67//9 66//8 
f 52//8 66//8 65//7 
f 53//7 65//7 64//6 
f 54//6 64//6 63//5 
f 55//5 63//5 62//4 
f 56//4 62//4 61//3 
f 57//3 61//3 60//2 
o mesh2
f 118//60 61//60 62//60 
f 62//60 63//60 118//60 
f 63//60 64//60 118//60 
f 64//60 65//60 118//60 
f 65//60 66//60 118//60 
f 66//60 67//60 118//60 
f 67//60 68//60 118//60 
f 68//60 69//60 118//60 
f 69//60 70//60 118//60 
f 70//60 71//60 118//60 
f 71//60 72//60 118//60 
f 72//60 73//60 118//60 
f 73//60 74//60 118//60 
f 74//60 75//60 118//60 
f 75//60 76//60 118//60 
f 76//60 77//60 118//60 
f 77//60 78//60 118//60 
f 78//60 79//60 118//60 
f 79//60 80//60 118//60 
f 80//60 81//60 118//60 
f 81//60 82//60 118//60 
f 82//60 83//60 118//60 
f 83//60 84//60 118//60 
f 84//60 85//60 118//60 
f 85//60 86//60 118//60 
f 86//60 87//60 118//60 
f 87//60 88//60 118//60 
f 88//60 89//60 118//60 
f 89//60 90//60 118//60 
f 90//60 91//60 118//60 
f 91//60 92//60 118//60 
f 92//60 93//60 118//60 
f 93//60 94//60 118//60 
f 94//60 95//60 118//60 
f 95//60 96//60 118//60 
f 96//60 97//60 118//60 
f 97//60 98//60 118//60 
f 98//60 99//60 118//60 
f 99//60 100//60 118//60 
f 100//60 101//60 118//60 
f 101//60 102//60 118//60 
f 102//60 103//60 118//60 
f 103//60 104//60 118//60 
f 104//60 105//60 118//60 
f 105//60 106//60 118//60 
f 106//60 107//60 118//60 
f 107//60 108//60 118//60 
f 108//60 109//60 118//60 
f 109//60 110//60 118//60 
f 110//60 111//60 118//60 
f 111//60 112//60 118//60 
f 112//60 113//60 118//60 
f 113//60 114//60 118//60 
f 114//60 115//60 118//60 
f 115//60 116//60 118//60 
f 116//60 117//60 118//60 
f 117//60 60//60 118//60 
f 60//60 61//60 118//60 
